<svg width="20" height="20" viewBox="0 0 20 20" fill="none" xmlns="http://www.w3.org/2000/svg">
<g id="  calendar-date-range">
<path id="Vector" d="M10 9.99417C9.83424 9.99417 9.67527 10.06 9.55806 10.1772C9.44085 10.2944 9.375 10.4534 9.375 10.6192V10.6242C9.375 10.9692 9.655 11.2492 10 11.2492H10.005C10.1708 11.2492 10.3297 11.1833 10.4469 11.0661C10.5642 10.9489 10.63 10.7899 10.63 10.6242V10.6192C10.63 10.4534 10.5642 10.2944 10.4469 10.1772C10.3297 10.06 10.1708 9.99417 10.005 9.99417H10ZM10 13.745C9.83424 13.745 9.67527 13.8109 9.55806 13.9281C9.44085 14.0453 9.375 14.2042 9.375 14.37V14.3742C9.375 14.7192 9.65417 14.9992 10 14.9992H10.0042C10.1699 14.9992 10.3289 14.9333 10.4461 14.8161C10.5633 14.6989 10.6292 14.5399 10.6292 14.3742V14.37C10.6292 14.2042 10.5633 14.0453 10.4461 13.9281C10.3289 13.8109 10.1699 13.745 10.0042 13.745H10ZM7.49917 14.37C7.49917 14.2042 7.56501 14.0453 7.68222 13.9281C7.79943 13.8109 7.95841 13.745 8.12417 13.745H8.12917C8.29493 13.745 8.4539 13.8109 8.57111 13.9281C8.68832 14.0453 8.75417 14.2042 8.75417 14.37V14.375C8.75417 14.5408 8.68832 14.6997 8.57111 14.8169C8.4539 14.9342 8.29493 15 8.12917 15H8.12417C7.95841 15 7.79943 14.9342 7.68222 14.8169C7.56501 14.6997 7.49917 14.5408 7.49917 14.375V14.37ZM6.24917 13.745C6.08341 13.745 5.92443 13.8109 5.80722 13.9281C5.69001 14.0453 5.62417 14.2042 5.62417 14.37V14.3742C5.62417 14.7192 5.90417 14.9992 6.24917 14.9992H6.25333C6.41909 14.9992 6.57806 14.9333 6.69527 14.8161C6.81249 14.6989 6.87833 14.5399 6.87833 14.3742V14.37C6.87833 14.2042 6.81249 14.0453 6.69527 13.9281C6.57806 13.8109 6.41909 13.745 6.25333 13.745H6.24917ZM11.2492 12.4975C11.2492 12.3317 11.315 12.1728 11.4322 12.0556C11.5494 11.9384 11.7084 11.8725 11.8742 11.8725H11.8792C12.0449 11.8725 12.2039 11.9384 12.3211 12.0556C12.4383 12.1728 12.5042 12.3317 12.5042 12.4975V12.5017C12.5042 12.6674 12.4383 12.8264 12.3211 12.9436C12.2039 13.0608 12.0449 13.1267 11.8792 13.1267H11.8742C11.7084 13.1267 11.5494 13.0608 11.4322 12.9436C11.315 12.8264 11.2492 12.6674 11.2492 12.5017V12.4975ZM11.875 13.745C11.7092 13.745 11.5503 13.8109 11.4331 13.9281C11.3158 14.0453 11.25 14.2042 11.25 14.37V14.375C11.25 14.72 11.5292 15 11.875 15H11.8792C12.0449 15 12.2039 14.9342 12.3211 14.8169C12.4383 14.6997 12.5042 14.5408 12.5042 14.375V14.37C12.5042 14.2042 12.4383 14.0453 12.3211 13.9281C12.2039 13.8109 12.0449 13.745 11.8792 13.745H11.875ZM13.125 12.4958C13.125 12.3301 13.1908 12.1711 13.3081 12.0539C13.4253 11.9367 13.5842 11.8708 13.75 11.8708H13.7542C13.9199 11.8708 14.0789 11.9367 14.1961 12.0539C14.3133 12.1711 14.3792 12.3301 14.3792 12.4958V12.5008C14.3792 12.6666 14.3133 12.8256 14.1961 12.9428C14.0789 13.06 13.9199 13.1258 13.7542 13.1258H13.75C13.5842 13.1258 13.4253 13.06 13.3081 12.9428C13.1908 12.8256 13.125 12.6666 13.125 12.5008V12.4958ZM11.2483 10.6192C11.2483 10.4534 11.3142 10.2944 11.4314 10.1772C11.5486 10.06 11.7076 9.99417 11.8733 9.99417H13.7483C13.9141 9.99417 14.0731 10.06 14.1903 10.1772C14.3075 10.2944 14.3733 10.4534 14.3733 10.6192C14.3733 10.7849 14.3075 10.9439 14.1903 11.0611C14.0731 11.1783 13.9141 11.2442 13.7483 11.2442H11.8733C11.7076 11.2442 11.5486 11.1783 11.4314 11.0611C11.3142 10.9439 11.2483 10.7849 11.2483 10.6192ZM5.62333 12.4942C5.62333 12.3284 5.68918 12.1694 5.80639 12.0522C5.9236 11.935 6.08257 11.8692 6.24833 11.8692H9.99833C10.1641 11.8692 10.3231 11.935 10.4403 12.0522C10.5575 12.1694 10.6233 12.3284 10.6233 12.4942C10.6233 12.6599 10.5575 12.8189 10.4403 12.9361C10.3231 13.0533 10.1641 13.1192 9.99833 13.1192H6.24833C6.08257 13.1192 5.9236 13.0533 5.80639 12.9361C5.68918 12.8189 5.62333 12.6599 5.62333 12.4942Z" fill="#94A3B8"/>
<path id="Vector_2" fill-rule="evenodd" clip-rule="evenodd" d="M15 2.49417C15 2.32841 14.9342 2.16944 14.8169 2.05223C14.6997 1.93502 14.5408 1.86917 14.375 1.86917C14.2092 1.86917 14.0503 1.93502 13.9331 2.05223C13.8158 2.16944 13.75 2.32841 13.75 2.49417V3.74417H6.25V2.495C6.25 2.32924 6.18415 2.17027 6.06694 2.05306C5.94973 1.93585 5.79076 1.87 5.625 1.87C5.45924 1.87 5.30027 1.93585 5.18306 2.05306C5.06585 2.17027 5 2.32924 5 2.495V3.7425H4.37333C3.71029 3.7425 3.07441 4.0059 2.60557 4.47474C2.13673 4.94358 1.87333 5.57946 1.87333 6.2425V15.6192C1.87333 16.2822 2.13673 16.9181 2.60557 17.3869C3.07441 17.8558 3.71029 18.1192 4.37333 18.1192H15.6233C16.2864 18.1192 16.9223 17.8558 17.3911 17.3869C17.8599 16.9181 18.1233 16.2822 18.1233 15.6192V6.24334C18.1233 5.5803 17.8599 4.94441 17.3911 4.47557C16.9223 4.00673 16.2864 3.74334 15.6233 3.74334H15V2.49417ZM3.12333 15.6192V9.36917C3.12333 9.03765 3.25503 8.71971 3.48945 8.48529C3.72387 8.25087 4.04181 8.11917 4.37333 8.11917H15.6233C15.9549 8.11917 16.2728 8.25087 16.5072 8.48529C16.7416 8.71971 16.8733 9.03765 16.8733 9.36917V15.6192C16.8733 15.9507 16.7416 16.2686 16.5072 16.5031C16.2728 16.7375 15.9549 16.8692 15.6233 16.8692H4.37333C4.04181 16.8692 3.72387 16.7375 3.48945 16.5031C3.25503 16.2686 3.12333 15.9507 3.12333 15.6192Z" fill="#94A3B8"/>
</g>
</svg>
