<svg width="48" height="48" viewBox="0 0 48 48" fill="none" xmlns="http://www.w3.org/2000/svg">
<g clip-path="url(#clip0_12_10743)">
<path d="M19.5 14.0002C17.71 15.1502 16.5 17.1802 16.5 19.5002C16.5 21.8202 17.71 23.8502 19.53 25.0002C16.46 25.0002 14 22.5402 14 19.5002C14 18.0415 14.5795 16.6426 15.6109 15.6111C16.6424 14.5797 18.0413 14.0002 19.5 14.0002ZM31.07 15.5002L32.5 16.9302L16.93 32.5002L15.5 31.0702L31.07 15.5002ZM24.89 17.9302L23.41 17.0002L21.97 18.0002L22.39 16.3002L21 15.2402L22.75 15.1202L23.33 13.4702L24 15.1002L25.73 15.1302L24.38 16.2602L24.89 17.9302ZM21.59 21.5402L20.43 20.8102L19.31 21.5902L19.65 20.2702L18.56 19.4402L19.92 19.3502L20.37 18.0602L20.88 19.3302L22.24 19.3602L21.19 20.2302L21.59 21.5402ZM31 25.5002C31 26.9589 30.4205 28.3579 29.3891 29.3893C28.3576 30.4208 26.9587 31.0002 25.5 31.0002C24.28 31.0002 23.15 30.6002 22.24 29.9302L29.93 22.2402C30.6 23.1502 31 24.2802 31 25.5002ZM26.6 32.0802L29.37 30.9302L29.13 34.2802L26.6 32.0802ZM30.93 29.3802L32.08 26.6102L34.28 29.1502L30.93 29.3802ZM32.08 24.4202L30.94 21.6402L34.28 21.8802L32.08 24.4202ZM21.63 30.9302L24.4 32.0802L21.87 34.2702L21.63 30.9302Z" fill="#64748B"/>
</g>
<defs>
<clipPath id="clip0_12_10743">
<rect x="4" y="4" width="40" height="40" rx="20" fill="white"/>
</clipPath>
</defs>
</svg>
